<svg width="240" height="240" viewBox="0 0 240 240" fill="none" xmlns="http://www.w3.org/2000/svg">
  <rect width="240" height="240" rx="32" fill="#F59E0B"/>
  <path d="M120 40c11 0 20 9 20 20v20h10c6 0 10 5 10 10v10c0 6-4 10-10 10h-10v20h18c7 0 12 5 12 12v10c0 7-5 12-12 12h-18v46c0 6-4 10-10 10h-16c-6 0-10-4-10-10v-46H84c-7 0-12-5-12-12v-10c0-7 5-12 12-12h20v-20H94c-6 0-10-4-10-10V90c0-5 4-10 10-10h10V60c0-11 9-20 20-20Z" fill="#FDF5E6"/>
  <path d="M138 60c-5-6-12-10-20-10s-15 4-20 10V48c0-7 5-12 12-12h16c7 0 12 5 12 12v12Z" fill="#FDF5E6" opacity="0.9"/>
</svg>
